<svg xmlns="http://www.w3.org/2000/svg" viewBox="0 0 48 48" fill="currentColor" aria-hidden="true">
  <!-- Icône "fichier" en points (pixel art 8×8), même grille que FloatingFileIcons -->
  <!-- Grille: 8×8, chaque point = cercle r=2, espacement 6 -->
  <g opacity="1">
    <!-- Ligne 0 -->
    <circle cx="15" cy="3" r="2"/>
    <circle cx="21" cy="3" r="2"/>
    <circle cx="27" cy="3" r="2"/>
    <circle cx="33" cy="3" r="2"/>
    <circle cx="39" cy="3" r="2"/>
    <!-- Ligne 1 -->
    <circle cx="9" cy="9" r="2"/>
    <circle cx="15" cy="9" r="2"/>
    <circle cx="21" cy="9" r="2"/>
    <circle cx="27" cy="9" r="2"/>
    <circle cx="33" cy="9" r="2"/>
    <circle cx="39" cy="9" r="2"/>
    <circle cx="45" cy="9" r="2"/>
    <!-- Lignes 2 à 7 (rectangle plein) -->
    <circle cx="3" cy="15" r="2"/>
    <circle cx="9" cy="15" r="2"/>
    <circle cx="15" cy="15" r="2"/>
    <circle cx="21" cy="15" r="2"/>
    <circle cx="27" cy="15" r="2"/>
    <circle cx="33" cy="15" r="2"/>
    <circle cx="39" cy="15" r="2"/>
    <circle cx="45" cy="15" r="2"/>
    <circle cx="3" cy="21" r="2"/>
    <circle cx="9" cy="21" r="2"/>
    <circle cx="15" cy="21" r="2"/>
    <circle cx="21" cy="21" r="2"/>
    <circle cx="27" cy="21" r="2"/>
    <circle cx="33" cy="21" r="2"/>
    <circle cx="39" cy="21" r="2"/>
    <circle cx="45" cy="21" r="2"/>
    <circle cx="3" cy="27" r="2"/>
    <circle cx="9" cy="27" r="2"/>
    <circle cx="15" cy="27" r="2"/>
    <circle cx="21" cy="27" r="2"/>
    <circle cx="27" cy="27" r="2"/>
    <circle cx="33" cy="27" r="2"/>
    <circle cx="39" cy="27" r="2"/>
    <circle cx="45" cy="27" r="2"/>
    <circle cx="3" cy="33" r="2"/>
    <circle cx="9" cy="33" r="2"/>
    <circle cx="15" cy="33" r="2"/>
    <circle cx="21" cy="33" r="2"/>
    <circle cx="27" cy="33" r="2"/>
    <circle cx="33" cy="33" r="2"/>
    <circle cx="39" cy="33" r="2"/>
    <circle cx="45" cy="33" r="2"/>
    <circle cx="3" cy="39" r="2"/>
    <circle cx="9" cy="39" r="2"/>
    <circle cx="15" cy="39" r="2"/>
    <circle cx="21" cy="39" r="2"/>
    <circle cx="27" cy="39" r="2"/>
    <circle cx="33" cy="39" r="2"/>
    <circle cx="39" cy="39" r="2"/>
    <circle cx="45" cy="39" r="2"/>
    <circle cx="3" cy="45" r="2"/>
    <circle cx="9" cy="45" r="2"/>
    <circle cx="15" cy="45" r="2"/>
    <circle cx="21" cy="45" r="2"/>
    <circle cx="27" cy="45" r="2"/>
    <circle cx="33" cy="45" r="2"/>
    <circle cx="39" cy="45" r="2"/>
    <circle cx="45" cy="45" r="2"/>
  </g>
</svg>

